HIERARCHY
ROOT Hips
{
 OFFSET 0.000000 0.000000 0.000000
 CHANNELS 6 Xposition Yposition Zposition Yrotation Xrotation Zrotation
 JOINT Chest
 {
  OFFSET 0.000000 9.585900 0.002600
  CHANNELS 3 Yrotation Xrotation Zrotation
  JOINT Chest2
  {
   OFFSET 0.000000 9.601200 -0.005300
   CHANNELS 3 Yrotation Xrotation Zrotation
   JOINT Chest3
   {
    OFFSET 0.000000 9.561800 0.000000
    CHANNELS 3 Yrotation Xrotation Zrotation
    JOINT Chest4
    {
     OFFSET 0.000000 9.552100 0.000000
     CHANNELS 3 Yrotation Xrotation Zrotation
     JOINT Neck
     {
      OFFSET 0.000000 14.453000 0.000000
      CHANNELS 3 Yrotation Xrotation Zrotation
      JOINT Head
      {
       OFFSET 0.000000 8.936500 -0.011300
       CHANNELS 3 Yrotation Xrotation Zrotation
       End Site
       {
        OFFSET 0.000000 17.073600 -0.006000
       }
      }
     }
     JOINT RightCollar
     {
      OFFSET -2.921100 9.558500 0.000000
      CHANNELS 3 Yrotation Xrotation Zrotation
      JOINT RightShoulder
      {
       OFFSET -13.519700 0.000000 0.000000
       CHANNELS 3 Yrotation Xrotation Zrotation
       JOINT RightElbow
       {
        OFFSET 0.000000 -29.696600 0.000000
        CHANNELS 3 Yrotation Xrotation Zrotation
        JOINT RightWrist
        {
         OFFSET 0.000000 -24.004700 0.000000
         CHANNELS 3 Yrotation Xrotation Zrotation
         End Site
         {
          OFFSET 0.000000 -17.728500 0.000000
         }
        }
       }
      }
     }
     JOINT LeftCollar
     {
      OFFSET 2.921100 9.558500 0.000000
      CHANNELS 3 Yrotation Xrotation Zrotation
      JOINT LeftShoulder
      {
       OFFSET 13.519700 0.000000 0.000000
       CHANNELS 3 Yrotation Xrotation Zrotation
       JOINT LeftElbow
       {
        OFFSET 0.000000 -29.696600 0.000000
        CHANNELS 3 Yrotation Xrotation Zrotation
        JOINT LeftWrist
        {
         OFFSET 0.000000 -24.004700 0.000000
         CHANNELS 3 Yrotation Xrotation Zrotation
         End Site
         {
          OFFSET 0.000000 -17.728500 0.000000
         }
        }
       }
      }
     }
    }
   }
  }
 }
 JOINT RightHip
 {
  OFFSET -7.771700 -0.012900 -0.001300
  CHANNELS 3 Yrotation Xrotation Zrotation
  JOINT RightKnee
  {
   OFFSET 0.000000 -40.869800 0.001200
   CHANNELS 3 Yrotation Xrotation Zrotation
   JOINT RightAnkle
   {
    OFFSET 0.000000 -39.717900 0.002100
    CHANNELS 3 Yrotation Xrotation Zrotation
    JOINT RightToe
    {
     OFFSET 0.000000 -4.965400 11.033500
     CHANNELS 3 Yrotation Xrotation Zrotation
     End Site
     {
      OFFSET 0.000000 -1.423100 5.872300
     }
    }
   }
  }
 }
 JOINT LeftHip
 {
  OFFSET 7.771700 -0.012900 -0.001300
  CHANNELS 3 Yrotation Xrotation Zrotation
  JOINT LeftKnee
  {
   OFFSET 0.000000 -40.869800 0.001200
   CHANNELS 3 Yrotation Xrotation Zrotation
   JOINT LeftAnkle
   {
    OFFSET 0.000000 -39.717900 0.002100
    CHANNELS 3 Yrotation Xrotation Zrotation
    JOINT LeftToe
    {
     OFFSET 0.000000 -4.965400 11.033500
     CHANNELS 3 Yrotation Xrotation Zrotation
     End Site
     {
      OFFSET 0.000000 -1.423100 5.872300
     }
    }
   }
  }
 }
}
MOTION
Frames: 12
Frame Time: 0.008333
0.000000 85.388000 0.000000 0.000000 -5.767877 0.000000 0.000000 11.653817 0.000000 0.000000 -5.885947 0.000000 0.000000 -0.000000 0.000000 0.000000 -0.000000 0.000000 0.000000 12.528835 0.000000 0.000000 0.711642 0.000000 0.000000 -0.000000 0.000000 0.000000 0.000000 -90.000000 0.000000 -2.309062 0.000000 0.000000 2.309062 0.000000 0.000000 -0.000000 0.000000 0.000000 -0.000000 90.000000 0.000000 -2.309062 0.000000 0.000000 2.309062 0.000000 0.000000 8.520406 0.000000 0.000000 1.905762 0.000000 -0.000000 -4.658285 0.000000 0.000000 -0.000000 0.000000 0.000000 8.520406 0.000000 0.000000 1.905762 0.000000 -0.000000 -4.658285 0.000000 0.000000 -0.000000 0.000000
-17.017339 55.152147 27.092431 -173.903691 -32.088093 -10.490426 -0.583267 12.870773 4.937804 -0.199162 7.577157 2.272663 -0.233452 9.421854 2.838834 -0.213430 7.555002 2.270094 1.503899 25.377111 8.563032 -0.315257 2.232428 9.156227 7.011588 1.013507 -4.342975 -6.152431 -41.946272 -3.792117 -54.359443 -30.194652 56.059816 -2.431793 -7.407870 -23.827730 -17.150791 -2.432650 -4.965940 -10.645213 -38.908053 13.262670 59.969283 -40.992033 -43.472999 36.044484 -8.383332 6.927735 -19.375173 -34.695772 0.219933 46.079739 87.465080 41.912213 0.474440 -18.496172 2.012645 -0.038177 0.477934 -0.013339 -13.102843 -45.734227 11.331795 174.435715 80.252557 168.302592 -3.448937 -17.279634 4.446889 -0.126482 -1.269035 -0.052462
-17.033190 55.151627 27.076771 -173.904718 -32.065662 -10.407385 -0.572222 12.893130 4.866403 -0.213874 7.551324 2.269638 -0.197511 9.476144 2.839925 -0.234429 7.514157 2.272536 1.389785 25.297764 8.415625 -0.407373 2.127301 9.010328 6.906439 0.900619 -4.373148 -6.144075 -41.853408 -3.716448 -54.302251 -30.399837 56.198650 -2.395096 -7.459278 -23.787984 -17.235131 -2.438627 -4.977222 -10.626105 -38.943332 13.414216 59.546399 -41.145686 -43.071071 36.014682 -8.293916 6.563611 -19.306680 -34.746375 0.118811 46.600780 87.484773 42.427655 0.466824 -18.530821 2.031713 -0.038313 0.482666 -0.008896 -13.009428 -45.708547 11.204280 174.447181 80.315085 168.309578 -3.489049 -17.419660 4.447791 -0.090993 -1.130001 -0.035462
-17.039095 55.149685 27.063624 -173.881929 -32.001459 -10.395829 -0.580036 12.876874 4.854483 -0.212874 7.547110 2.268547 -0.203117 9.465361 2.842343 -0.227778 7.515635 2.266423 1.274781 25.226909 8.270526 -0.495013 2.036426 8.860639 6.825941 0.802883 -4.399299 -6.126431 -41.784574 -3.668451 -54.265220 -30.621170 56.339859 -2.349949 -7.492380 -23.703367 -17.293272 -2.463053 -4.968546 -10.625038 -38.979679 13.536906 59.034572 -41.329478 -42.561314 35.968021 -8.212298 6.204281 -19.317741 -34.806447 0.112145 46.812504 87.503416 42.635055 0.460430 -18.554010 2.031666 -0.038695 0.481591 0.001429 -13.030580 -45.766818 11.188119 174.461781 80.307812 168.319632 -3.498928 -17.435586 4.454141 -0.081409 -1.125127 -0.035011
-17.044454 55.148363 27.048362 -173.853248 -31.939652 -10.392854 -0.565138 12.902408 4.866205 -0.226287 7.525052 2.264958 -0.225260 9.425671 2.834095 -0.221222 7.533135 2.265808 1.161571 25.147537 8.117212 -0.574344 1.956880 8.708085 6.772029 0.700776 -4.426896 -6.132299 -41.718262 -3.620499 -54.219319 -30.881553 56.490687 -2.291710 -7.496207 -23.581941 -17.351399 -2.504840 -4.961563 -10.630560 -39.030521 13.657878 58.460516 -41.531689 -41.975803 35.922659 -8.151551 5.879548 -19.338760 -34.858059 0.112340 47.021504 87.520533 42.834643 0.455269 -18.580900 2.043548 -0.039552 0.481809 0.004449 -13.060820 -45.822445 11.177859 174.472510 80.296444 168.326672 -3.503094 -17.447608 4.457884 -0.080573 -1.125432 -0.034371
-17.036245 55.150222 27.030795 -173.826607 -31.889203 -10.474000 -0.552222 12.894918 4.947526 -0.234280 7.516298 2.261990 -0.235358 9.414769 2.830186 -0.226135 7.519882 2.268163 1.062714 25.103454 7.958860 -0.643423 1.883982 8.553973 6.738503 0.633180 -4.447842 -6.170782 -41.639594 -3.540664 -54.133465 -31.211345 56.640980 -2.224373 -7.468027 -23.441289 -17.404649 -2.516115 -4.965665 -10.640393 -39.097527 13.777818 57.866734 -41.726886 -41.358639 35.892753 -8.116801 5.601367 -19.419560 -34.857373 0.219903 46.766251 87.526956 42.569783 0.453849 -18.594372 2.052773 -0.039779 0.476571 0.000737 -13.189495 -45.895116 11.297214 174.529619 80.215285 168.384201 -3.462561 -17.364674 4.455444 -0.113298 -1.244860 -0.047859
-17.042144 55.148543 27.015711 -173.785031 -31.821292 -10.479128 -0.582165 12.860464 4.938675 -0.232373 7.522585 2.260628 -0.250808 9.394398 2.825465 -0.231286 7.512157 2.270702 0.971537 25.055875 7.798298 -0.703210 1.814729 8.396835 6.714041 0.564932 -4.461608 -6.183462 -41.568000 -3.471223 -54.019387 -31.612567 56.759078 -2.150463 -7.415902 -23.297979 -17.463245 -2.529823 -4.965774 -10.652409 -39.175260 13.896629 57.300023 -41.893435 -40.763059 35.875951 -8.112632 5.375176 -19.443084 -34.911126 0.218681 46.934054 87.546814 42.733305 0.447468 -18.621702 2.075235 -0.039658 0.476014 -0.001203 -13.244155 -45.955394 11.290236 174.506159 80.201640 168.357486 -3.465193 -17.379423 4.450615 -0.107546 -1.243627 -0.046057
-17.029825 55.151958 26.997816 -173.768778 -31.782331 -10.587237 -0.559095 12.855395 5.049163 -0.243954 7.502713 2.257686 -0.255965 9.388033 2.823281 -0.236402 7.511195 2.260365 0.892669 25.005636 7.649725 -0.751524 1.748046 8.235040 6.694738 0.494711 -4.459230 -6.137797 -41.519663 -3.430205 -53.870119 -32.090423 56.813076 -2.065916 -7.349669 -23.164399 -17.524715 -2.542751 -4.953234 -10.664168 -39.252996 14.016890 56.785941 -42.032442 -40.226676 35.868582 -8.149892 5.210398 -19.494587 -34.883259 0.339922 46.350151 87.546584 42.174891 0.452567 -18.635686 2.072997 -0.046749 0.477540 0.005811 -13.412018 -46.007028 11.446815 174.501975 80.121678 168.343428 -3.355396 -17.256916 4.459886 -0.191638 -1.407860 -0.093857
-17.029996 55.154257 26.980101 -173.758383 -31.753218 -10.622318 -0.546459 12.863422 5.088085 -0.254639 7.476757 2.255162 -0.261818 9.381328 2.821530 -0.246203 7.504173 2.256403 0.820775 24.961530 7.495371 -0.784447 1.683577 8.067706 6.686276 0.446864 -4.458597 -6.106621 -41.474795 -3.432374 -53.667614 -32.633478 56.874659 -1.968783 -7.271354 -23.058186 -17.548065 -2.545706 -4.949669 -10.705738 -39.327456 14.144246 56.327235 -42.159132 -39.766311 35.875412 -8.234364 5.111452 -19.509510 -34.882688 0.383890 46.227177 87.555827 42.050531 0.442427 -18.654902 2.093462 -0.047400 0.476214 0.001028 -13.479211 -46.043869 11.486038 174.462610 80.060867 168.297709 -3.302515 -17.243866 4.467201 -0.236803 -1.464470 -0.115995
-17.036016 55.155560 26.964292 -173.740705 -31.720786 -10.631180 -0.561782 12.861166 5.091512 -0.265996 7.480296 2.252366 -0.265190 9.355634 2.817640 -0.272680 7.490747 2.255677 0.778063 24.924618 7.334167 -0.802230 1.618707 7.892313 6.695507 0.380731 -4.457536 -6.012978 -41.439462 -3.472838 -53.396852 -33.267641 56.858144 -1.860313 -7.179036 -22.994235 -17.542308 -2.545747 -4.952895 -10.737363 -39.384274 14.279333 55.924918 -42.288698 -39.391369 35.899852 -8.360055 5.062241 -19.504558 -34.898033 0.394284 46.199949 87.569218 42.015970 0.422079 -18.678295 2.127659 -0.051214 0.476643 -0.003612 -13.511353 -46.068553 11.485280 174.416364 80.043833 168.253923 -3.302713 -17.251702 4.460908 -0.240175 -1.476130 -0.111764
-17.042624 55.156674 26.950620 -173.724149 -31.685181 -10.641473 -0.582908 12.849356 5.094306 -0.280808 7.482803 2.252432 -0.302249 9.346747 2.815445 -0.236495 7.476831 2.246340 0.716817 24.877640 7.168854 -0.809459 1.545263 7.704506 6.673974 0.284385 -4.450350 -5.908836 -41.470977 -3.575570 -53.003534 -33.924866 56.750144 -1.733476 -7.072748 -22.988432 -17.591506 -2.560982 -4.944388 -10.718219 -39.411270 14.415969 55.573257 -42.440224 -39.095015 35.932397 -8.506312 5.022739 -19.505094 -34.916967 0.399786 46.224596 87.576443 42.041956 0.411190 -18.700591 2.143258 -0.039320 0.476304 -0.008129 -13.547065 -46.097432 11.488681 174.360721 80.027886 168.200782 -3.305900 -17.257160 4.456048 -0.235509 -1.487530 -0.112077
-17.049343 55.156430 26.941177 -173.714407 -31.632236 -10.651715 -0.601168 12.805873 5.099701 -0.288323 7.485567 2.252706 -0.325428 9.350716 2.818756 -0.246857 7.463420 2.240150 0.680847 24.824684 6.989370 -0.810085 1.455151 7.500700 6.683341 0.208082 -4.443898 -5.851777 -41.467294 -3.658070 -52.523060 -34.738984 56.648148 -1.576578 -6.951980 -23.044274 -17.665676 -2.586009 -4.922364 -10.631988 -39.405361 14.545697 55.243152 -42.642047 -38.844744 35.963591 -8.648048 4.939353 -19.510417 -34.955889 0.416347 46.243773 87.582090 42.061093 0.412760 -18.716286 2.153605 -0.049426 0.477183 -0.005669 -13.597111 -46.148287 11.506348 174.290163 80.009579 168.127223 -3.297331 -17.252928 4.451740 -0.241538 -1.505009 -0.116321
